<svg xmlns="http://www.w3.org/2000/svg" xmlns:xlink="http://www.w3.org/1999/xlink" viewBox="0 0 874.1681 874.1681"><defs><style>.cls-1{fill:url(#linear-gradient);}.cls-2{fill:url(#linear-gradient-2);}.cls-3{fill:url(#linear-gradient-3);}.cls-4{fill:url(#linear-gradient-4);}.cls-5{fill:url(#linear-gradient-5);}.cls-6{fill:url(#linear-gradient-6);}.cls-7{fill:url(#linear-gradient-7);}.cls-8{isolation:isolate;}.cls-9{fill:#fff;}.cls-10{opacity:0.55;fill:url(#linear-gradient-8);}.cls-11{opacity:0.72;mix-blend-mode:soft-light;fill:url(#Autumn_Yellow);}.cls-12{fill:url(#linear-gradient-9);}.cls-13{fill:url(#linear-gradient-10);}.cls-14{fill:url(#linear-gradient-11);}.cls-15{fill:#be1e2d;}.cls-16{fill:url(#linear-gradient-12);}.cls-17{fill:url(#linear-gradient-13);}.cls-18{fill:url(#radial-gradient);}.cls-19{fill:url(#linear-gradient-14);}.cls-20{mask:url(#mask);}.cls-21{fill:url(#linear-gradient-15);}.cls-22{mask:url(#mask-2);}.cls-23{fill:#232463;}.cls-24{fill:url(#linear-gradient-16);}.cls-25{mask:url(#mask-3);}.cls-26{fill:#c0e6ed;}.cls-27{mask:url(#mask-4);}.cls-28{fill:url(#linear-gradient-17);}.cls-29{mask:url(#mask-5);}.cls-30{fill:url(#linear-gradient-18);}.cls-31{fill:url(#radial-gradient-2);}.cls-32{mask:url(#mask-6);}.cls-33{fill:#f0dceb;}.cls-34{mask:url(#mask-7);}.cls-35{fill:url(#linear-gradient-19);}.cls-36{fill:url(#linear-gradient-20);}</style><linearGradient id="linear-gradient" x1="-27197.0383" y1="-22341.7605" x2="-29254.9655" y2="-25906.1533" gradientTransform="matrix(0.072, 0, 0, -0.072, 2718.5896, -1342.8307)" gradientUnits="userSpaceOnUse"><stop offset="0" stop-color="#fff"/><stop offset="1" stop-color="#fff" stop-opacity="0"/></linearGradient><linearGradient id="linear-gradient-2" x1="-23848.1082" y1="-30312.8644" x2="-30496.2986" y2="-27324.8411" xlink:href="#linear-gradient"/><linearGradient id="linear-gradient-3" x1="-36911.1463" y1="-19742.5175" x2="-34882.0191" y2="-27315.3113" xlink:href="#linear-gradient"/><linearGradient id="linear-gradient-4" x1="-17933.9212" y1="-36640.2593" x2="-35208.5654" y2="-26666.7388" xlink:href="#linear-gradient"/><linearGradient id="linear-gradient-5" x1="-35744.7153" y1="-20671.328" x2="-33319.6546" y2="-29721.8601" xlink:href="#linear-gradient"/><linearGradient id="linear-gradient-6" x1="-31640.0349" y1="-18917.4955" x2="-31640.0349" y2="-22800.7614" xlink:href="#linear-gradient"/><linearGradient id="linear-gradient-7" x1="-31640.0703" y1="-18012.45" x2="-31640.0703" y2="-20628.1702" xlink:href="#linear-gradient"/><linearGradient id="linear-gradient-8" x1="9092.7711" y1="-4749.1694" x2="9966.9051" y2="-4749.1694" gradientTransform="translate(5817.8305 9625.1215) rotate(-93.8651)" gradientUnits="userSpaceOnUse"><stop offset="0.736" stop-color="#f79248"/><stop offset="1" stop-color="#ffd357"/></linearGradient><linearGradient id="Autumn_Yellow" x1="13539.1108" y1="6507.7079" x2="13794.7509" y2="6064.9263" gradientTransform="translate(15425.4573 -1085.6308) rotate(149.9661)" gradientUnits="userSpaceOnUse"><stop offset="0" stop-color="#fbf3de"/><stop offset="0" stop-color="#fcedc1"/><stop offset="0" stop-color="#fee18a"/><stop offset="0.5506" stop-color="#ffce09"/><stop offset="0.6275" stop-color="#f9c80f"/><stop offset="1" stop-color="#e2b126"/></linearGradient><linearGradient id="linear-gradient-9" x1="484.666" y1="58.6084" x2="484.666" y2="81.5956" gradientUnits="userSpaceOnUse"><stop offset="0" stop-color="#f1563c"/><stop offset="0.4901" stop-color="#de3b34"/><stop offset="1" stop-color="#ce242c"/></linearGradient><linearGradient id="linear-gradient-10" x1="396.3408" y1="58.6084" x2="396.3408" y2="81.5956" xlink:href="#linear-gradient-9"/><linearGradient id="linear-gradient-11" x1="440.5034" y1="72.7395" x2="440.5034" y2="90.2307" gradientUnits="userSpaceOnUse"><stop offset="0.0859" stop-color="#f1563c"/><stop offset="0.5339" stop-color="#de3b34"/><stop offset="1" stop-color="#ce242c"/></linearGradient><linearGradient id="linear-gradient-12" x1="-31640.0526" y1="-19878.1576" x2="-31640.0526" y2="-20775.7739" gradientTransform="matrix(0.072, 0, 0, -0.072, 2718.5896, -1342.8307)" gradientUnits="userSpaceOnUse"><stop offset="0" stop-color="#f7977a"/><stop offset="0.0342" stop-color="#f68d71"/><stop offset="0.2407" stop-color="#f1563c"/><stop offset="0.6128" stop-color="#de3b34"/><stop offset="1" stop-color="#ce242c"/></linearGradient><linearGradient id="linear-gradient-13" x1="-31640.0524" y1="-21792.6551" x2="-31640.0524" y2="-23088.1144" gradientTransform="matrix(0.072, 0, 0, -0.072, 2718.5896, -1342.8307)" gradientUnits="userSpaceOnUse"><stop offset="0" stop-color="#f7977a"/><stop offset="0.0337" stop-color="#f68d71"/><stop offset="0.2374" stop-color="#f1563c"/><stop offset="0.4377" stop-color="#ec4f3a"/><stop offset="0.7198" stop-color="#e03d34"/><stop offset="1" stop-color="#ce242c"/></linearGradient><radialGradient id="radial-gradient" cx="-31640.0699" cy="-25440.717" r="3001.2116" gradientTransform="matrix(0.072, 0, 0, -0.072, 2718.5896, -1342.8307)" gradientUnits="userSpaceOnUse"><stop offset="0" stop-color="#f7977a"/><stop offset="0" stop-color="#f68d71"/><stop offset="0" stop-color="#f1563c"/><stop offset="0.4901" stop-color="#de3b34"/><stop offset="1" stop-color="#ce242c"/></radialGradient><linearGradient id="linear-gradient-14" x1="-30024.9937" y1="-27550.1786" x2="-29442.505" y2="-24351.1188" gradientTransform="matrix(0.072, 0, 0, -0.072, 2718.5896, -1342.8307)" gradientUnits="userSpaceOnUse"><stop offset="0.0225" stop-color="#583835"/><stop offset="0.1587" stop-color="#d7572b"/><stop offset="0.3926" stop-color="#ec7c31"/><stop offset="0.4534" stop-color="#ed8432"/><stop offset="0.5482" stop-color="#ef9a35"/><stop offset="0.6555" stop-color="#f3bb39"/></linearGradient><mask id="mask" x="372.0106" y="487.9914" width="444.3061" height="131.4321" maskUnits="userSpaceOnUse"><g id="id4"><rect class="cls-1" x="372.0106" y="487.9914" width="444.3061" height="131.4321"/></g></mask><linearGradient id="linear-gradient-15" x1="585.1128" y1="482.866" x2="609.1818" y2="615.054" gradientUnits="userSpaceOnUse"><stop offset="0.0225" stop-color="#583835"/><stop offset="0.2314" stop-color="#d7572b"/><stop offset="0.2635" stop-color="#e0682e"/><stop offset="0.3037" stop-color="#e77330"/><stop offset="0.3602" stop-color="#eb7a31"/><stop offset="0.5172" stop-color="#ec7c31"/><stop offset="0.5281" stop-color="#ed8232"/><stop offset="0.5954" stop-color="#f0a136"/><stop offset="0.6523" stop-color="#f2b438"/><stop offset="0.6918" stop-color="#f3bb39"/></linearGradient><mask id="mask-2" x="312.5838" y="515.039" width="482.3277" height="246.8058" maskUnits="userSpaceOnUse"><g id="id6"><rect class="cls-2" x="312.5838" y="515.039" width="482.3277" height="246.8058"/></g></mask><linearGradient id="linear-gradient-16" x1="-32276.3831" y1="-29909.1217" x2="-31598.8991" y2="-25066.7154" gradientTransform="matrix(0.072, 0, 0, -0.072, 2718.5896, -1342.8307)" gradientUnits="userSpaceOnUse"><stop offset="0" stop-color="#2d479d"/><stop offset="1" stop-color="#7ed2ea"/></linearGradient><mask id="mask-3" x="64.6899" y="466.3697" width="276.6737" height="284.7178" maskUnits="userSpaceOnUse"><g id="id8"><rect class="cls-3" x="64.6899" y="466.3697" width="276.6737" height="284.7178"/></g></mask><mask id="mask-4" x="121.0548" y="612.4871" width="599.2861" height="203.1828" maskUnits="userSpaceOnUse"><g id="id10"><rect class="cls-4" x="121.0548" y="612.4871" width="599.2861" height="203.1828"/></g></mask><linearGradient id="linear-gradient-17" x1="-31640.3709" y1="-31062.8184" x2="-31640.3709" y2="-27680.1393" gradientTransform="matrix(0.072, 0, 0, -0.072, 2718.5896, -1342.8307)" gradientUnits="userSpaceOnUse"><stop offset="0.0493" stop-color="#2d479d"/><stop offset="0.1671" stop-color="#3b5faa"/><stop offset="0.4332" stop-color="#5890c6"/><stop offset="0.6669" stop-color="#6db4d9"/><stop offset="0.8568" stop-color="#79cae6"/><stop offset="0.9792" stop-color="#7ed2ea"/></linearGradient><mask id="mask-5" x="160.5359" y="656.1025" width="286.8172" height="165.416" maskUnits="userSpaceOnUse"><g id="id12"><rect class="cls-5" x="160.5359" y="656.1025" width="286.8172" height="165.416"/></g></mask><linearGradient id="linear-gradient-18" x1="404.8766" y1="806.0688" x2="232.0795" y2="633.2716" gradientUnits="userSpaceOnUse"><stop offset="0.0225" stop-color="#583835"/><stop offset="0.2755" stop-color="#d7572b"/><stop offset="0.2989" stop-color="#e0682e"/><stop offset="0.3281" stop-color="#e77330"/><stop offset="0.3692" stop-color="#eb7a31"/><stop offset="0.4834" stop-color="#ec7c31"/><stop offset="0.5387" stop-color="#f3bb39"/></linearGradient><radialGradient id="radial-gradient-2" cx="-31640.0531" cy="-21284.214" r="1576.7404" gradientTransform="matrix(0.072, 0, 0, -0.072, 2718.5896, -1342.8307)" gradientUnits="userSpaceOnUse"><stop offset="0" stop-color="#f7977a"/><stop offset="0.027" stop-color="#f68d71"/><stop offset="0.1902" stop-color="#f1563c"/><stop offset="0.5871" stop-color="#de3b34"/><stop offset="1" stop-color="#ce242c"/></radialGradient><mask id="mask-6" x="163.8755" y="225.815" width="553.2633" height="53.8098" maskUnits="userSpaceOnUse"><g id="id16"><rect class="cls-6" x="163.8755" y="225.815" width="553.2633" height="53.8098"/></g></mask><mask id="mask-7" x="264.7041" y="87.9737" width="351.601" height="37.9731" maskUnits="userSpaceOnUse"><g id="id18"><rect class="cls-7" x="264.7041" y="87.9737" width="351.601" height="37.9731"/></g></mask><linearGradient id="linear-gradient-19" x1="512.7892" y1="482.8965" x2="652.9206" y2="482.8965" xlink:href="#linear-gradient-9"/><linearGradient id="linear-gradient-20" x1="299.935" y1="784.5791" x2="507.0066" y2="425.9204" gradientUnits="userSpaceOnUse"><stop offset="0" stop-color="#d95b2c"/><stop offset="0.1146" stop-color="#d7572b"/><stop offset="0.3459" stop-color="#ec7c31"/><stop offset="0.4175" stop-color="#ed8432"/><stop offset="0.5291" stop-color="#ef9a35"/><stop offset="0.6555" stop-color="#f3bb39"/></linearGradient></defs><title>EB SUN LOGO</title><g class="cls-8"><g id="Layer_2" data-name="Layer 2"><circle class="cls-9" cx="437.084" cy="437.084" r="437.0671"/><circle class="cls-10" cx="437.084" cy="437.084" r="437.0671"/><circle class="cls-11" cx="447.2118" cy="312.5899" r="255.5974"/><polygon class="cls-12" points="502.958 58.608 502.958 81.596 484.666 81.596 466.374 81.596 466.374 58.608 502.958 58.608"/><polygon class="cls-13" points="378.049 58.608 378.049 81.596 396.341 81.596 414.632 81.596 414.632 58.608 378.049 58.608"/><polygon class="cls-14" points="520.169 72.74 520.169 90.231 360.837 90.231 360.837 72.74 520.169 72.74"/><path class="cls-15" d="M793.0469,282.2638s-9.9728,75.3374-97.326,75.8341v.01H186.152c-88.1607,0-98.187-75.8468-98.187-75.8468,16.117,22.5108,42.4768,33.1509,72.1125,33.1509h26.0771V298.8215h509.569v15.7017l19.5177,1.07c29.5923,1.62,61.6939-10.8211,77.8084-33.3319Z"/><path class="cls-15" d="M213.2174,127.218s8.3909,53.2061,70.9662,53.2061H601.0492V180.33c58.7237-2.3384,66.7427-53.1118,66.7427-53.1118-11.1674,15.5973-29.4319,23.5806-49.9659,23.5806H601.0492v-8.4011H284.1836v8.936H263.1809c-20.5316,0-38.7985-8.5182-49.966-24.1156Z"/><path class="cls-16" d="M258.3766,128.456c-27.7736,12.0157-45.1592-1.238-45.1592-1.238a61.4543,61.4543,0,0,0,49.966,25.807H617.8285a61.454,61.454,0,0,0,49.9659-25.8071s-17.3855,13.2563-45.1592,1.238-90.8-40.0593-90.8-40.0593H349.1763s-63.0262,28.041-90.8,40.0593Z"/><path class="cls-17" d="M720.9345,319.5135a88.6929,88.6929,0,0,0,72.1124-37.2471s-25.0912,19.133-65.1736,1.7882C687.7885,266.71,596.8257,226.24,596.8257,226.24h-312.64s-90.9628,40.47-131.0476,57.8142c-40.0823,17.3448-65.1736-1.7882-65.1736-1.7882a88.6928,88.6928,0,0,0,72.1125,37.2471H720.9345Z"/><path class="cls-18" d="M186.152,319.5135h41.9368v61.8594H652.9206V319.5135h41.9368V658.2882H652.9206v-163.59H512.7892V626.2428H470.8524V407.1061H385.6517V567.4887H343.7124V407.1062H228.0889V567.4887H186.1522V319.5136Zm466.7686,87.59H512.7892v61.862H652.9206Z"/><path class="cls-19" d="M815.894,527.3349C775.8728,697.6189,623,824.3945,440.5059,824.3945a386.0393,386.0393,0,0,1-100.4541-13.2461c-65.5939-103.7019-5.1278-242.34,34.8526-295.6841C586.56,623.8558,670.0488,403.7434,815.8966,527.3349Z"/><g class="cls-20"><path class="cls-21" d="M383.3183,519.6115c205.4756,98.3855,288.6792-114.2147,432.5757,7.7209,0,0-53.6061-37.945-121.0366,14.0384-67.428,51.986-107.3091,77.6223-107.3091,77.6223s-244.2614-51.986-212.216-89.0165a121.3253,121.3253,0,0,0,7.986-10.3676Z"/></g><g class="cls-22"><path class="cls-23" d="M794.4862,591.9149A387.1249,387.1249,0,0,1,652.6888,760.7928c-55.4657,2.5626-116.2757-2.9243-168.0783-12.22-69.2213-12.4207-126.8879-38.615-171.6038-75.5819,7.9961-65.67,38.46-126.2533,61.8952-157.5244,79.6806,40.8057,141.1937,35.0487,194.7107,18.6057,87.07,60.0508,159.1014,115.9342,224.8737,57.8448Z"/></g><path class="cls-24" d="M65.1153,527.3248C384.7728,309.9,642.14,760.7418,794.5015,591.9022c-59.2536,136.784-195.4367,232.4924-353.9956,232.4924-182.4987,0-335.3745-126.7806-375.3906-297.07Z"/><g class="cls-25"><path class="cls-26" d="M65.1153,527.3248c92.5447-62.9472,179.8572-69.83,260.9237-52.0037C219.973,461.39,171.23,628.6474,340.9408,665.1584c0,0-18.5548,73.3681-22.9208,74.0508-2.57.4025-57.6743,6.506-104.2982,11.4528a385.922,385.922,0,0,1-148.6064-223.34Z"/></g><g class="cls-27"><path class="cls-23" d="M719.9155,704.4942A385.6291,385.6291,0,0,1,551.42,808.1859c-48.379,7.4713-99.9243,8.5335-144.3779,5.4257a418.3225,418.3225,0,0,1-190.8744-61.1843,387.8772,387.8772,0,0,1-94.6869-97.02c111.5045-75.9843,209.1566-36.2688,307.4047,12.1687,87.9621,43.3657,198.1878,94.99,291.033,36.9184Z"/></g><path class="cls-28" d="M720.0072,704.4407a385.606,385.606,0,0,1-559.0484-.0485c100.1867-84.9051,190.8744-38.9792,285.969,1.3093,84.3244,35.7264,191.3354,71.8272,273.0794-1.2609Z"/><g class="cls-29"><path class="cls-30" d="M389.85,821.0958A384.67,384.67,0,0,1,160.9588,704.3923c100.1867-84.9051,190.8744-38.9793,285.969,1.3093C315.363,649.668,275.7952,799.14,389.8394,821.0805Z"/></g><path class="cls-31" d="M378.28,153.025H404.01V226.24H378.28Zm-94.0935,0h41.9368V226.24H284.1861Zm312.64,0H554.8889V226.24h41.9367Zm-94.0934,0H477.0016V226.24h25.7306Z"/><g class="cls-32"><path class="cls-33" d="M233.2038,256.1486H338.7679c-2.4964,1.0928-3.8363,2.2442-3.8363,3.4338,0,7.0816,47.2683,12.8182,105.5743,12.8182S546.08,266.6614,546.08,259.5824c0-1.19-1.34-2.341-3.8363-3.4338H647.808s31.2253,10.4771,68.9055,23.0533C673.0725,260.1632,596.8256,226.24,596.8256,226.24H284.1912s-76.2468,33.9228-119.8878,52.9615c37.6776-12.5762,68.9054-23.0533,68.9054-23.0533Z"/></g><g class="cls-34"><path class="cls-33" d="M349.1763,107.27h25.9522c-4.9851,1.2023-7.7948,2.5626-7.7948,4.0018,0,4.9164,32.7613,8.9,73.1722,8.9,40.4134,0,73.1722-3.9866,73.1722-8.9,0-1.4392-2.81-2.7969-7.7949-4.0018h55.5217s25.4759,8.5616,54.4748,18.2516c-30.0611-13.106-84.0468-37.1248-84.0468-37.1248H349.1789s-53.9857,24.0188-84.0468,37.1248c29.0014-9.69,54.4773-18.2516,54.4773-18.2516h29.5669Z"/></g><rect class="cls-35" x="512.7892" y="468.9655" width="140.1314" height="27.862"/><path class="cls-36" d="M146.5064,688.2859c-6.4666-7.52-11.6678-14.1982-15.59-19.4671-9.3726-12.5906-15.7462-22.9118-19.9586-29.7331-3.0148-4.8824-5.0062-8.3448-5.7609-9.6653-3.1083-5.44-5.4564-9.9395-6.9435-12.7962-1.4347-2.7559-2.48-4.8362-2.8012-5.4785-.9675-1.9307-2.6518-5.3347-4.61-9.5337-1.7722-3.8008-4.5622-9.9548-7.6991-17.6795-2.2034-5.4255-3.8915-9.9356-5.0058-12.9924-.7415-2.0345-2.3767-6.5744-4.281-12.4014-1.2338-3.7747-2.1613-6.8081-2.6672-8.4851-.7782-2.5788-1.3473-4.5641-1.5571-5.2988,0,0-1.5294-5.3563-2.8268-10.5049-.1894-.7519-.4061-1.6239-.4061-1.624-.3754-1.5115-.6817-2.772-.8993-3.6748l-.3857-1.6291.111-.07a355.3008,355.3008,0,0,1,47.1524-27.385c18.6348-8.987,56.0055-26.6078,108.011-31.9992,35.5815-3.6887,63.1085-.1075,78.3053,1.9658,29.9126,4.0809,51.6024,10.9353,72.2985,17.5832,36.2338,11.6389,62.5689,24.2348,87.6976,36.3677,13.0022,6.2779,33.6049,17.3271,74.81,39.4256,18.0772,9.6949,41.1475,22.1724,72.8447,37.3507,15.6834,7.51,27.1977,12.6734,42.1559,17.8016,21.2273,7.2774,37.6045,10.4436,52.5312,11.6857a115.44,115.44,0,0,0,21.9516.1092,108.61,108.61,0,0,0,31.9993-8.6641,111.9607,111.9607,0,0,0,12.1225-6.3708,107.1244,107.1244,0,0,0,10.23-7.026c2.1288-1.6611,3.8775-3.1617,5.1876-4.3321l6.316-5.9521,3.7678-3.8224,1.9112-2.075-.2547.3458c-13.5385,16.79-41.757,45.9794-85.2585,55.6983-39.2342,8.7655-72.67-2.3728-102.2228-12.2318-27.5266-9.1831-56.49-24.4128-86.4962-40.19-5.9725-3.14-10.2028-5.4376-13.52-7.2755-8.3241-4.6118-11.99-6.6468-15.3119-8.4511-3.7576-2.0412-10.8739-5.7572-26.5024-12.2318-16.82-6.9682-37.2495-15.4316-55.9167-20.9687-13.7113-4.067-47.16-13.6849-88.5345-11.0668-23.7917,1.5055-66.5223,4.2093-106.009,34.9479-12.6336,9.8348-43.1623,32.9363-53.587,75.1381a124.5092,124.5092,0,0,0,.1,58.738l-3.4129-3.513-4.4777-4.8781Z"/></g></g></svg>