<?xml version="1.0" encoding="UTF-8"?>
<svg version="1.1" xmlns="http://www.w3.org/2000/svg" width="787" height="781">
<path d="M0 0 C4.31783393 0.01866194 8.63529978 0.00363063 12.95312977 -0.01057911 C34.74432664 -0.06916428 56.02526974 -0.03998426 77.42138672 4.57647705 C78.88743878 4.86862389 80.35380789 5.15918626 81.82055664 5.44781494 C85.4368715 6.19493122 89.02123169 7.01559523 92.60888672 7.88897705 C94.48809814 8.33998779 94.48809814 8.33998779 96.40527344 8.80010986 C126.84772663 16.23909893 155.44797346 27.48900164 183.42138672 41.57647705 C184.20513672 41.96512939 184.98888672 42.35378174 185.79638672 42.75421143 C209.28400755 54.43510857 231.46549946 69.5791661 251.42138672 86.57647705 C252.50451325 87.48557767 253.58785909 88.39441703 254.67138672 89.30303955 C268.34438606 100.83348568 281.93942641 112.88248852 293.59716797 126.4788208 C294.84108212 127.90918889 296.11072741 129.3174843 297.40185547 130.7053833 C304.67846119 138.53866924 311.03859318 147.01518032 317.42138672 155.57647705 C317.96875488 156.30431396 318.51612305 157.03215088 319.08007812 157.78204346 C327.68744665 169.25597539 335.31636626 181.11938082 342.42138672 193.57647705 C342.92025391 194.4478833 343.41912109 195.31928955 343.93310547 196.21710205 C377.33635147 254.95185852 394.62862964 320.9148569 394.67138672 388.45147705 C394.67239883 389.89878708 394.67239883 389.89878708 394.6734314 391.37533569 C394.6129438 446.2274063 383.75652863 501.01367834 360.65380859 550.91339111 C359.4380486 553.54047313 358.24921155 556.17857708 357.06201172 558.81866455 C348.81660183 576.88875314 338.88915941 594.34805435 327.42138672 610.57647705 C326.64921303 611.68582541 325.87707996 612.79520205 325.10498047 613.90460205 C307.39827831 639.17083883 286.89679553 663.49324554 263.42138672 683.57647705 C262.36751184 684.49388383 261.3141691 685.4119021 260.26123047 686.3303833 C241.93649001 702.25954706 222.38086852 716.31334165 201.42138672 728.57647705 C200.72529297 728.98575439 200.02919922 729.39503174 199.31201172 729.81671143 C157.66804659 754.12207077 111.96840633 770.26187093 64.35888672 777.76397705 C63.37968262 777.91898682 62.40047852 778.07399658 61.39160156 778.23370361 C42.06974868 781.11550068 22.94083534 781.94993931 3.42138672 781.88897705 C1.60288712 781.88624283 1.60288712 781.88624283 -0.25234985 781.88345337 C-18.22131024 781.83798408 -35.80020422 781.37258597 -53.57861328 778.57647705 C-55.25987305 778.32704346 -55.25987305 778.32704346 -56.97509766 778.0725708 C-126.3555678 767.60151047 -191.43060971 737.98271086 -245.57861328 693.57647705 C-246.55185547 692.77854736 -247.52509766 691.98061768 -248.52783203 691.1585083 C-263.49542922 678.75125013 -277.93846767 665.36071048 -290.57861328 650.57647705 C-291.85285156 649.13594971 -291.85285156 649.13594971 -293.15283203 647.6663208 C-355.18114124 577.17045324 -388.76210507 484.73852158 -388.82861328 391.13897705 C-388.82962036 390.1504776 -388.83062744 389.16197815 -388.83166504 388.14352417 C-388.81976537 370.77612495 -387.93763902 353.79711316 -385.57861328 336.57647705 C-385.43407715 335.51815674 -385.28954102 334.45983643 -385.140625 333.3694458 C-374.20768695 256.36669278 -340.00984879 184.41533524 -287.75048828 126.96710205 C-286.2921723 125.36190533 -284.84434419 123.74712275 -283.40673828 122.12335205 C-276.0414687 113.81783529 -268.36633795 105.76917347 -259.90673828 98.5647583 C-258.02303183 96.95602242 -256.16463114 95.3270916 -254.31298828 93.6819458 C-232.20404365 74.11936415 -207.59099918 57.51117751 -181.57861328 43.57647705 C-180.65677246 43.08196045 -179.73493164 42.58744385 -178.78515625 42.07794189 C-162.86892155 33.63320146 -146.47944583 26.79269822 -129.57861328 20.57647705 C-128.6657959 20.23777588 -127.75297852 19.89907471 -126.8125 19.55010986 C-116.44482843 15.75081379 -105.87869288 12.72250608 -95.19055176 9.96450806 C-93.32960574 9.48400852 -91.47110061 8.99408334 -89.61279297 8.503479 C-85.28586958 7.42344057 -80.94441526 6.48382396 -76.57861328 5.57647705 C-75.59659943 5.36294586 -74.61458557 5.14941467 -73.60281372 4.92941284 C-49.14587911 -0.23828164 -24.89355299 -0.15781054 0 0 Z " fill="#FEFEFE" transform="translate(388.57861328125,-0.57647705078125)"/>
<path d="M0 0 C4.3822968 3.7562544 8.36464776 7.26563786 12.328125 11.37109375 C13.3029249 12.36828893 14.27820055 13.36501921 15.25390625 14.36132812 C16.75024173 15.89452277 18.24323958 17.43046823 19.72802734 18.97485352 C33.81631604 33.59852523 49.98527959 43.10421901 70.6875 43.5 C78.71680403 43.50937704 85.76610643 41.76507739 93.328125 39.19140625 C99.80640955 37.08940967 99.80640955 37.08940967 103 37 C105.40357904 38.72900539 107.17170068 40.28291559 109.18896484 42.39428711 C110.06810043 43.27188942 110.06810043 43.27188942 110.96499634 44.16722107 C112.89736498 46.10446511 114.80376683 48.06531416 116.7109375 50.02734375 C118.04604461 51.37550701 119.3827061 52.72213259 120.72085571 54.067276 C124.23816734 57.61131078 127.73395483 61.17586128 131.22570801 64.74505615 C134.7926855 68.38364871 138.37956946 72.00249779 141.96484375 75.62304688 C148.99621666 82.72948674 156.00501459 89.85775325 163 97 C161.09690813 101.22971884 158.19727106 103.7038767 154.6875 106.625 C154.06012939 107.15351562 153.43275879 107.68203125 152.78637695 108.2265625 C135.91749373 122.33731866 117.97797557 134.89621955 99 146 C98.30390625 146.40927734 97.6078125 146.81855469 96.890625 147.24023438 C55.24665987 171.54559372 9.54701961 187.68539388 -38.0625 195.1875 C-39.0417041 195.34250977 -40.0209082 195.49751953 -41.02978516 195.65722656 C-60.35163803 198.53902363 -79.48055137 199.37346226 -99 199.3125 C-100.8184996 199.30976578 -100.8184996 199.30976578 -102.67373657 199.30697632 C-120.64269696 199.26150703 -138.22159094 198.79610892 -156 196 C-157.68125977 195.75056641 -157.68125977 195.75056641 -159.39648438 195.49609375 C-232.3997069 184.47827928 -298.67475217 152.31282796 -355 105.1875 C-355.56452881 104.71908691 -356.12905762 104.25067383 -356.71069336 103.76806641 C-359.25088203 101.62704471 -361.14290139 99.78564791 -363 97 C-362.56362213 96.63753174 -362.12724426 96.27506348 -361.67764282 95.90161133 C-355.6146188 90.7407696 -350.07456925 85.1080434 -344.52216721 79.41394043 C-341.60865538 76.43095146 -338.67778158 73.46506616 -335.75 70.49609375 C-332.04273916 66.73476698 -328.34092533 62.96850174 -324.65722656 59.18408203 C-321.66109695 56.10694435 -318.64825229 53.04709831 -315.62340164 49.99819946 C-314.47761504 48.83697908 -313.33814696 47.6694885 -312.20524216 46.49569702 C-310.62577399 44.8608218 -309.02588301 43.24893264 -307.41943359 41.640625 C-306.5153476 40.71797852 -305.6112616 39.79533203 -304.67977905 38.84472656 C-302 37 -302 37 -298.86465454 37.15136719 C-297.91931854 37.43141602 -296.97398254 37.71146484 -296 38 C-294.92621094 38.309375 -293.85242188 38.61875 -292.74609375 38.9375 C-291.65425781 39.288125 -290.56242187 39.63875 -289.4375 40 C-273.9008065 44.97759792 -260.01212082 43.93539162 -245 38 C-243.92878906 37.5771875 -242.85757813 37.154375 -241.75390625 36.71875 C-233.44335957 33.00115825 -227.35195764 27.34701961 -221 21 C-219.82171631 19.83210937 -219.82171631 19.83210937 -218.61962891 18.640625 C-213.05255898 13.12060074 -207.51534725 7.57167937 -202 2 C-193.14655328 9.3830995 -185.07989217 17.58356922 -176.89990234 25.69506836 C-174.96026412 27.61676291 -173.01242061 29.52953979 -171.05712891 31.43530273 C-168.22961146 34.19133363 -165.42656969 36.97149063 -162.625 39.75390625 C-161.74497314 40.60610245 -160.86494629 41.45829865 -159.95825195 42.33631897 C-158.76075317 43.53797951 -158.76075317 43.53797951 -157.5390625 44.76391602 C-156.47486084 45.81265648 -156.47486084 45.81265648 -155.38916016 46.88258362 C-154 49 -154 49 -154.2043457 51.61143494 C-155.09964795 54.29914451 -156.31553653 56.70633662 -157.5625 59.25 C-162.54263713 71.93197711 -162.21542481 89.51350751 -157.3125 102.23046875 C-156.879375 103.14441406 -156.44625 104.05835938 -156 105 C-155.525625 106.00675781 -155.05125 107.01351562 -154.5625 108.05078125 C-146.97745717 122.40036948 -134.61052157 132.54575529 -119.3046875 137.69140625 C-113.59473559 139.31018759 -108.09452446 139.49689551 -102.1875 139.4375 C-101.13087158 139.42992676 -100.07424316 139.42235352 -98.9855957 139.41455078 C-90.99994895 139.24619907 -84.33074316 138.35775149 -77 135 C-75.56333984 134.34644531 -75.56333984 134.34644531 -74.09765625 133.6796875 C-59.02761302 126.11365756 -49.81873849 113.61578382 -44 98 C-42.90017503 94.00063647 -42.33314455 90.13099248 -42 86 C-41.90589844 84.83726562 -41.81179688 83.67453125 -41.71484375 82.4765625 C-41.30328063 72.40909548 -43.62479371 64.31761494 -47 55 C-47.66 53.02 -48.32 51.04 -49 49 C-32.83 32.83 -16.66 16.66 0 0 Z " fill="#2CAFA6" transform="translate(491,582)"/>
<path d="M0 0 C5.43185621 4.03907256 9.42252781 8.91084735 13.59423828 14.21435547 C14.59642704 15.48736842 15.60310705 16.75685096 16.61279297 18.02392578 C24.59185534 28.03779569 32.16107905 38.17284514 39 49 C39.42845215 49.67434082 39.8569043 50.34868164 40.29833984 51.04345703 C80.46425104 114.56743552 102.20235775 186.62205075 102.25 261.875 C102.25067474 262.83987335 102.25134949 263.8047467 102.25204468 264.79885864 C102.19155709 319.65092924 91.33514191 374.43720129 68.23242188 424.33691406 C67.01666188 426.96399608 65.82782483 429.60210003 64.640625 432.2421875 C56.39521511 450.31227608 46.46777269 467.7715773 35 484 C34.22782631 485.10934836 33.45569324 486.218725 32.68359375 487.328125 C24.79658805 498.58233551 16.34117727 509.34644384 7.4375 519.8125 C6.92461426 520.41771484 6.41172852 521.02292969 5.88330078 521.64648438 C2.24374404 525.87812798 2.24374404 525.87812798 0 527 C-0.36033829 526.56860718 -0.72067657 526.13721436 -1.0919342 525.69274902 C-6.87625357 518.91805802 -13.1880431 512.68528739 -19.49609375 506.40625 C-20.69700203 505.20721046 -21.897687 504.00794723 -23.09815979 502.80847168 C-26.23422285 499.67619792 -29.37327889 496.5469409 -32.51300049 493.41833496 C-35.72600001 490.2156273 -38.93611471 487.01003092 -42.14648438 483.8046875 C-48.42819371 477.53365211 -54.71307358 471.26580477 -61 465 C-60.65066406 463.96359375 -60.30132813 462.9271875 -59.94140625 461.859375 C-59.48169068 460.48961023 -59.0220597 459.11981707 -58.5625 457.75 C-58.33240234 457.06808594 -58.10230469 456.38617187 -57.86523438 455.68359375 C-52.45852988 439.54183829 -53.17195855 420.83921929 -60.51074219 405.45239258 C-64.74849799 397.08878617 -70.35867126 390.59007073 -77 384 C-78.7181366 382.27021502 -80.43551935 380.5396811 -82.15234375 378.80859375 C-87.08100016 373.85156657 -92.03348623 368.91907463 -97 364 C-91.99744121 357.95734086 -86.56822676 352.43901957 -81.0078125 346.91015625 C-80.05209752 345.95631046 -79.09660612 345.00224059 -78.1413269 344.04795837 C-75.64805084 341.55846806 -73.15178475 339.07199776 -70.65484619 336.58618164 C-68.09878491 334.04042006 -65.54561495 331.49176223 -62.9921875 328.94335938 C-57.99758981 323.95942931 -52.99982201 318.97868952 -48 314 C-43.18418354 315.59500241 -38.43188417 317.31283786 -33.68359375 319.09765625 C-18.72200884 324.12840751 -2.54681 320.96457431 11.25 314.25 C26.26356363 306.54019028 34.93259996 294.87978969 40.125 278.99609375 C44.60856767 263.64387765 43.39280404 247.16408916 36 233 C27.3581695 217.81506926 14.51053742 208.43311716 -2.1875 203.7265625 C-3.115625 203.48679687 -4.04375 203.24703125 -5 203 C-5.63164063 202.80792969 -6.26328125 202.61585938 -6.9140625 202.41796875 C-18.63897783 200.06859433 -31.67637376 202.04742256 -42.1484375 207.69921875 C-45 209 -45 209 -46.88592529 208.85231018 C-49.80899831 207.67384431 -51.45891555 205.89993954 -53.67675781 203.66381836 C-55.05773651 202.28249977 -55.05773651 202.28249977 -56.46661377 200.87327576 C-57.46227919 199.86229096 -58.45777907 198.8511431 -59.453125 197.83984375 C-60.47808326 196.80928859 -61.50370714 195.77939506 -62.52996826 194.75013733 C-65.22617017 192.04249408 -67.91324072 189.32596228 -70.59851074 186.60748291 C-73.34146729 183.83381027 -76.09296124 181.06863571 -78.84375 178.30273438 C-84.2375602 172.87677256 -89.62175234 167.44139257 -95 162 C-91.5833517 157.92709955 -88.12514676 154.01341144 -84.28515625 150.328125 C-83.43373047 149.49796875 -82.58230469 148.6678125 -81.70507812 147.8125 C-79.95317076 146.11368074 -78.19540303 144.42088278 -76.43164062 142.734375 C-68.63463367 135.09649063 -62.8601437 126.81139112 -58.625 116.75 C-58.14289062 115.63109375 -57.66078125 114.5121875 -57.1640625 113.359375 C-52.41120629 99.64307856 -52.78902281 80.16999177 -59 67 C-59.6721792 65.33554894 -60.33953513 63.66913402 -61 62 C-60.25053604 61.25275665 -59.50107208 60.50551331 -58.72889709 59.73562622 C-51.67756739 52.7045393 -44.62885767 45.67083532 -37.58272648 38.63453865 C-33.95987452 35.01691262 -30.33609517 31.40022569 -26.71020508 27.78564453 C-23.21322208 24.29950067 -19.71866407 20.8109431 -16.22579765 17.3206749 C-14.89057528 15.98730491 -13.55447089 14.65481759 -12.21748543 13.32321548 C-10.34978326 11.46273732 -8.48519849 9.59918885 -6.62133789 7.73486328 C-6.06388885 7.18100952 -5.50643982 6.62715576 -4.93209839 6.05651855 C-2.11673769 3.29264682 -2.11673769 3.29264682 0 0 Z " fill="#35C8A5" transform="translate(681,126)"/>
<path d="M0 0 C9.47177171 5.79637563 17.15523398 15.03208717 24.94921875 22.84741211 C26.39844125 24.29691702 27.84788465 25.7462011 29.29753113 27.19528198 C33.21446355 31.11192853 37.12831393 35.03164167 41.04160309 38.9519279 C45.13840574 43.05499908 49.23805707 47.15522198 53.33740234 51.25575256 C61.0916996 59.01315284 68.84344508 66.7730978 76.5942688 74.53396851 C85.42180945 83.3727023 94.25220359 92.20858294 103.08283424 101.04422939 C121.24068319 119.2125194 139.3949598 137.38437547 157.546875 155.55859375 C162.21321575 151.66189205 166.62911722 147.61255976 170.90205383 143.2900238 C171.50126135 142.68814289 172.10046886 142.08626197 172.71783417 141.46614224 C174.70663311 139.46735685 176.69178382 137.46498789 178.67700195 135.46264648 C180.10981073 134.02136207 181.54288248 132.58033906 182.97619629 131.13955688 C186.0537413 128.04533987 189.12990319 124.94975661 192.20513344 121.85323906 C197.07246985 116.95319226 201.94584193 112.05917895 206.82060242 107.16651917 C207.64469001 106.33934511 208.4687776 105.51217106 209.31783754 104.65993112 C211.00242817 102.96903307 212.68702766 101.27814384 214.37163579 99.58726323 C225.71286965 88.20307868 237.04959055 76.81445882 248.37182617 65.41137695 C256.01948751 57.70920155 263.67603531 50.01598227 271.34283799 42.33285862 C275.39523105 38.27110503 279.44292727 34.20490589 283.47973061 30.12765312 C287.27669412 26.29275021 291.0852417 22.4697427 294.90283966 18.65538406 C296.29792539 17.25733665 297.68874946 15.85502091 299.07484245 14.44805717 C314.45783171 -1.156118 314.45783171 -1.156118 325.015625 -3.0703125 C334.12750619 -2.87069655 341.61130132 -1.53546284 348.421875 4.87109375 C354.6947364 11.7653235 356.98415216 18.39482483 356.80078125 27.63671875 C356.10802697 35.60872186 352.69864866 40.74876223 347.27484131 46.4719696 C346.74779091 47.0349707 346.2207405 47.5979718 345.67771888 48.17803353 C339.30530831 54.94348108 332.73005819 61.50781702 326.14941406 68.06958008 C324.74843188 69.4702794 323.34767142 70.87120052 321.94711304 72.27232361 C318.18571526 76.03400548 314.42126687 79.79262042 310.65621662 83.55064607 C306.70664217 87.49392186 302.75994491 91.44007533 298.81292725 95.38591003 C291.35673351 102.83900951 283.89799689 110.28955869 276.43831801 117.73916978 C267.93802127 126.22824588 259.44060172 134.72019955 250.94340944 143.21238291 C233.48107258 160.66429858 216.01516852 178.11264048 198.546875 195.55859375 C202.42050584 200.19443972 206.43966415 204.58935433 210.73278809 208.83784485 C211.32579633 209.42888526 211.91880458 210.01992566 212.52978277 210.62887639 C214.49859791 212.59003101 216.47098644 214.54755105 218.44335938 216.50512695 C219.86330929 217.91823965 221.28300579 219.33160702 222.70246887 220.74520874 C225.75079525 223.78024381 228.8005327 226.81385133 231.85127258 229.84646034 C236.67975731 234.64701679 241.50274957 239.45306557 246.32458496 244.26029968 C247.97842512 245.90899651 249.63227191 247.55768668 251.28612518 249.20637035 C252.11411086 250.03177047 252.94209654 250.85717059 253.79517269 251.70758283 C265.01459282 262.89101068 276.23871192 274.06968962 287.47314453 285.23803711 C295.06175535 292.78209698 302.64317827 300.33330133 310.21658754 307.89262265 C314.21983847 311.88781716 318.22669892 315.87923578 322.24247742 319.8618412 C326.02021464 323.60842399 329.78845799 327.36430112 333.54977989 331.1273613 C334.92731855 332.50221449 336.30826828 333.87366024 337.69295692 335.24131203 C356.55744201 353.88379739 356.55744201 353.88379739 356.859375 366.18359375 C356.75123022 375.15961065 353.52050376 381.30156435 347.484375 387.83203125 C342.07179159 392.65534146 335.63663792 394.71195032 328.484375 394.93359375 C327.42089844 394.98257812 326.35742188 395.0315625 325.26171875 395.08203125 C312.72928689 393.31615757 304.80231652 383.49310892 296.36669922 374.94604492 C294.85892904 373.43686282 293.35005392 371.92878395 291.84016418 370.42172241 C287.76143501 366.34442311 283.69826671 362.25193337 279.63778448 358.15647292 C275.38536074 353.87271471 271.11869784 349.60318643 266.85354614 345.33210754 C258.78667334 337.24971723 250.73262705 329.15467039 242.68314755 321.0549615 C233.51525096 311.83110663 224.33309012 302.62150773 215.14972281 293.41305959 C196.2662289 274.47735485 177.40065588 255.52387991 158.546875 236.55859375 C153.87747276 240.45841822 149.45697644 244.51095591 145.17823792 248.83389282 C144.27730995 249.73777255 144.27730995 249.73777255 143.35818142 250.65991247 C141.36472086 252.66103525 139.37489338 254.66573099 137.38500977 256.67041016 C135.94894767 258.11330912 134.51263111 259.55595488 133.07608032 260.99836731 C129.99193121 264.09580794 126.90920929 267.19465956 123.82748604 270.2945137 C118.95186133 275.19805392 114.07075471 280.0961121 109.1884613 284.99301147 C107.51459316 286.67202287 105.84073171 288.35104095 104.16687679 290.03006554 C103.3289128 290.87061509 102.49094881 291.71116464 101.62759197 292.57718539 C90.26880885 303.97197806 78.91478873 315.37148465 67.57104492 326.78125 C59.90905392 334.48774601 52.23995629 342.18709278 44.56273502 349.87841737 C40.50389427 353.94532544 36.4488466 358.01586326 32.40255928 362.09526443 C28.59849147 365.93041207 24.78520417 369.75614401 20.96469498 373.57491112 C19.56642961 374.9758691 18.171588 376.38025413 16.7804966 377.7883358 C14.87700191 379.71406143 12.96144589 381.6269545 11.04249573 383.53726196 C10.22665798 384.37159994 10.22665798 384.37159994 9.39433867 385.22279322 C3.22086005 391.30965327 -3.80463102 394.66364638 -12.515625 394.93359375 C-21.04496915 394.84820543 -27.01984236 392.01112611 -33.328125 386.37109375 C-38.48961416 380.70931841 -40.63208859 374.26621278 -41.078125 366.68359375 C-40.2273219 352.01002685 -29.64064076 342.90984387 -19.81884766 333.24316406 C-18.31915488 331.74516635 -16.82078725 330.245841 -15.32363892 328.74530029 C-11.27959201 324.69954047 -7.21738984 320.67247582 -3.15153933 316.64864445 C1.10333263 312.43142327 5.34108267 308.19706614 9.58071899 303.96453857 C17.6008737 295.96299049 25.63619189 287.97685318 33.67714369 279.99621081 C42.83530541 270.90524416 51.97632159 261.79711982 61.11597514 252.68755198 C79.90733005 233.95881739 98.71999222 215.25160916 117.546875 196.55859375 C113.67011927 191.91968089 109.64773875 187.52019956 105.35423279 183.2658844 C104.76051898 182.67343286 104.16680516 182.08098132 103.55510002 181.4705767 C101.58394726 179.50476072 99.60923207 177.54256379 97.63452148 175.58032227 C96.21295704 174.16395623 94.79163779 172.74734406 93.37054443 171.33050537 C90.31899432 168.28886646 87.26598854 165.2486989 84.21191216 162.20959663 C79.37993413 157.40075226 74.5528971 152.58696895 69.7268219 147.77220154 C56.00585554 134.08461224 42.28074021 120.40120278 28.54516602 106.72827148 C20.95223257 99.16988389 13.36468678 91.60613126 5.78307396 84.03638786 C0.99012066 79.25152076 -3.80932319 74.47329263 -8.61366093 69.69985783 C-11.60363686 66.72591828 -14.58726498 63.74567322 -17.56913757 60.76361084 C-18.94958737 59.38557721 -20.33260571 58.01011092 -21.7184124 56.63746452 C-23.61514968 54.75798739 -25.50230383 52.86936349 -27.38746643 50.97828674 C-27.93299701 50.44217681 -28.47852759 49.90606688 -29.04058939 49.35371119 C-36.45009648 41.86658832 -40.26624569 34.19945581 -40.890625 23.68359375 C-40.70655669 16.19431433 -37.17985025 10.12434933 -32.203125 4.68359375 C-22.85476697 -3.82039645 -11.51901724 -4.59535262 0 0 Z " fill="#36C8A5" transform="translate(233.453125,193.44140625)"/>
<path d="M0 0 C4.09620634 1.62358696 6.83447899 4.56680396 9.87011719 7.64306641 C10.73418434 8.50669548 10.73418434 8.50669548 11.6157074 9.38777161 C13.51421037 11.28766537 15.40553522 13.19453991 17.296875 15.1015625 C18.61351582 16.42193434 19.93059957 17.74186464 21.24810791 19.06137085 C24.71145037 22.53234276 28.16874418 26.0092793 31.62481689 29.48748779 C35.1537998 33.03694385 38.6884642 36.58073201 42.22265625 40.125 C49.15401308 47.07779463 56.07899377 54.03690309 63 61 C62.48143433 62.31085571 62.48143433 62.31085571 61.95239258 63.64819336 C61.50017334 64.80456299 61.0479541 65.96093262 60.58203125 67.15234375 C60.1331958 68.29437256 59.68436035 69.43640137 59.22192383 70.61303711 C53.74551218 85.7927092 54.89810559 102.34406871 61.125 117.0625 C61.3835376 117.68672852 61.6420752 118.31095703 61.90844727 118.95410156 C67.01990248 130.34945846 75.68370823 139.09981071 84.5 147.6875 C85.5241461 148.69654693 86.54758764 149.70630947 87.5703125 150.71679688 C90.03884544 153.15279674 92.5166388 155.57910725 95 158 C93.4733675 161.58466195 91.3500006 163.92569236 88.62963867 166.69262695 C87.7249736 167.61650711 86.82030853 168.54038727 85.88822937 169.49226379 C84.89869855 170.49148725 83.90859775 171.49014652 82.91796875 172.48828125 C81.90147102 173.51628835 80.88497631 174.54429845 79.8684845 175.5723114 C77.73967841 177.72209014 75.60628246 179.8672043 73.47045898 182.01000977 C70.73293326 184.75853734 68.01446948 187.52514215 65.29999828 190.29641438 C63.20909187 192.42452483 61.10493157 194.53914203 58.99688148 196.65025902 C57.9883716 197.66482729 56.98487249 198.68440185 55.98653221 199.70897865 C54.59142396 201.13812271 53.17541761 202.54677632 51.75854492 203.9543457 C50.55847054 205.16535698 50.55847054 205.16535698 49.33415222 206.40083313 C47 208 47 208 44.35005188 207.80924988 C41.93553844 206.9778024 39.5936363 206.07730984 37.25 205.0625 C21.36078778 198.65555959 6.03505572 199.78226402 -9.7421875 206.09765625 C-25.6163801 213.39187248 -35.69295246 226.08986034 -42 242 C-43.23218784 246.03123183 -43.75739069 249.79821316 -44 254 C-44.04624512 254.63518555 -44.09249023 255.27037109 -44.14013672 255.92480469 C-45.25188096 272.67613959 -40.52727328 287.50136785 -29.8203125 300.68359375 C-19.43810062 311.86574655 -5.0986666 319.36634424 10.23828125 320.33984375 C21.61623514 320.74098549 31.94491945 319.0354128 42.0625 313.57421875 C44 313 44 313 45.81158447 313.66879272 C48.60080996 315.36547108 50.64827083 317.40934439 52.95214844 319.72509766 C53.4306575 320.20331467 53.90916656 320.68153168 54.4021759 321.17424011 C55.97603195 322.74948483 57.54269293 324.33168535 59.109375 325.9140625 C60.20181286 327.01023213 61.29469434 328.10595981 62.38800049 329.20126343 C65.25951242 332.08039888 68.12496654 334.96549056 70.98919678 337.85186768 C73.91494126 340.79809815 76.84638014 343.73865069 79.77734375 346.6796875 C85.52381482 352.44758588 91.26389806 358.22178964 97 364 C93.5833517 368.07290045 90.12514676 371.98658856 86.28515625 375.671875 C85.43373047 376.50203125 84.58230469 377.3321875 83.70507812 378.1875 C81.95317076 379.88631926 80.19540303 381.57911722 78.43164062 383.265625 C65.95453511 395.48809571 56.90600507 410.96684465 56.57006836 428.69482422 C56.5675708 429.76490723 56.56507324 430.83499023 56.5625 431.9375 C56.55935791 433.04109863 56.55621582 434.14469727 56.55297852 435.28173828 C56.68912417 444.66142158 58.45823007 452.33717912 62 461 C62.33 461.99 62.66 462.98 63 464 C42.33333333 484.66666667 21.66666667 505.33333333 1 526 C-7.77490041 516.87340017 -15.46330945 507.15891847 -23 497 C-23.54446777 496.27506348 -24.08893555 495.55012695 -24.64990234 494.80322266 C-33.26080842 483.32627949 -40.89270159 471.46109013 -48 459 C-48.49886719 458.12859375 -48.99773438 457.2571875 -49.51171875 456.359375 C-83.04048449 397.40391031 -100.20184718 331.32980221 -100.25 263.5625 C-100.25100708 262.57400055 -100.25201416 261.5855011 -100.25305176 260.56704712 C-100.24115208 243.1996479 -99.35902574 226.22063611 -97 209 C-96.7831958 207.41251953 -96.7831958 207.41251953 -96.56201172 205.79296875 C-86.17081816 132.60582475 -54.72315316 62.67206057 -6 7 C-4.76931358 5.56380089 -3.5398454 4.12655532 -2.3125 2.6875 C-1.1678125 1.3571875 -1.1678125 1.3571875 0 0 Z " fill="#35C8A5" transform="translate(100,127)"/>
<path d="M0 0 C4.31783393 0.01866194 8.63529978 0.00363063 12.95312977 -0.01057911 C34.74432664 -0.06916428 56.02526974 -0.03998426 77.42138672 4.57647705 C78.88743878 4.86862389 80.35380789 5.15918626 81.82055664 5.44781494 C85.4368715 6.19493122 89.02123169 7.01559523 92.60888672 7.88897705 C94.48809814 8.33998779 94.48809814 8.33998779 96.40527344 8.80010986 C126.84772663 16.23909893 155.44797346 27.48900164 183.42138672 41.57647705 C184.20513672 41.96512939 184.98888672 42.35378174 185.79638672 42.75421143 C209.2750282 54.43064295 231.4883173 69.56390002 251.42138672 86.57647705 C252.02063965 87.0869458 252.61989258 87.59741455 253.23730469 88.12335205 C257.30991427 91.5947524 261.36964998 95.08074506 265.42138672 98.57647705 C263.80229034 102.60056213 260.96788871 105.34636842 257.96533203 108.3706665 C257.40897064 108.938564 256.85260925 109.50646149 256.27938843 110.09156799 C254.44182364 111.96337312 252.59649662 113.82725019 250.74951172 115.6897583 C250.11894615 116.32722677 249.48838058 116.96469524 248.83870697 117.62148094 C245.50479741 120.99118654 242.16481404 124.35473449 238.81982422 127.71343994 C235.36320701 131.18664908 231.92805148 134.68030744 228.49733353 138.17907429 C225.85642593 140.86468515 223.20010989 143.53464236 220.53932953 146.20055199 C219.26560458 147.48218509 217.99777446 148.76970444 216.73600006 150.06310463 C214.97171594 151.86867851 213.18676016 153.65098787 211.39501953 155.42926025 C210.6185759 156.23874115 210.6185759 156.23874115 209.82644653 157.0645752 C208.33135986 158.52174377 208.33135986 158.52174377 205.42138672 160.57647705 C200.19420622 160.38020635 195.41460104 158.26837994 190.51904297 156.51397705 C174.56185741 151.68456402 157.43464157 154.35860322 142.73388672 161.63897705 C135.71868902 165.69503681 130.10928445 170.89303925 124.42138672 176.57647705 C123.24527832 177.74219238 123.24527832 177.74219238 122.04541016 178.93145752 C116.47687367 184.45294478 110.93819126 190.00332551 105.42138672 195.57647705 C99.21791285 190.45105727 93.56453996 184.84878645 87.89404297 179.14678955 C86.89535655 178.14623419 85.89644625 177.14590224 84.89732361 176.14578247 C82.28946708 173.53413825 79.68462977 170.91950338 77.08044434 168.30419922 C74.41403435 165.62749382 71.74473208 162.95367603 69.07568359 160.27960205 C63.8547757 155.04802307 58.63705921 149.81327609 53.42138672 144.57647705 C53.89674971 143.14603734 54.37249049 141.71572317 54.84838867 140.28546143 C55.11327591 139.48894165 55.37816315 138.69242188 55.65107727 137.87176514 C56.28346835 135.98743187 56.93391646 134.10916784 57.58935547 132.23272705 C62.54462302 116.89228191 61.90767005 101.39381377 54.75683594 86.86065674 C46.95909441 71.83092869 35.56024262 62.26308423 19.70263672 56.23272705 C3.64204577 51.61255705 -13.96473685 53.42615879 -28.55126953 61.1506958 C-42.10291697 69.14747262 -51.72285607 81.3842054 -56.69580078 96.30303955 C-59.99652445 109.83005337 -59.43474851 127.39522234 -52.38330078 139.65460205 C-51.3464632 142.13093259 -51.68502325 143.07115003 -52.57861328 145.57647705 C-53.95800781 147.28057861 -53.95800781 147.28057861 -55.71142578 148.96710205 C-56.35337891 149.59487549 -56.99533203 150.22264893 -57.65673828 150.8694458 C-58.33220703 151.51526611 -59.00767578 152.16108643 -59.70361328 152.82647705 C-63.53029547 156.52459482 -67.31012752 160.19371422 -70.76220703 164.24835205 C-76.00635787 170.34571791 -81.81184316 175.91491442 -87.51611328 181.57647705 C-88.68887337 182.74421079 -89.86140126 183.91217779 -91.03369141 185.0803833 C-93.87933017 187.9151094 -96.72808781 190.74666529 -99.57861328 193.57647705 C-103.40752764 192.01083225 -105.71040725 189.60357076 -108.54345703 186.63116455 C-109.51889709 185.62549877 -110.49482567 184.62030665 -111.47119141 183.61553955 C-112.98363026 182.0480191 -114.49184681 180.47705706 -115.9909668 178.89678955 C-125.09263572 169.33237533 -134.64401936 161.56629344 -147.51611328 157.63897705 C-148.72138672 157.25870361 -149.92666016 156.87843018 -151.16845703 156.4866333 C-164.37166129 152.96275404 -181.38562804 152.89514101 -193.72314453 159.77178955 C-196.44468635 160.95207926 -197.75611685 160.48796349 -200.57861328 159.57647705 C-202.68838541 157.83048301 -204.53960004 156.1219905 -206.4387207 154.17047119 C-207.00194534 153.60783066 -207.56516998 153.04519012 -208.14546204 152.46549988 C-210.0013099 150.60686978 -211.8425918 148.73448059 -213.68408203 146.8616333 C-214.97164327 145.56660826 -216.26009311 144.27246614 -217.5493927 142.97917175 C-220.93916535 139.57413778 -224.31675892 136.15726757 -227.69195557 132.73779297 C-231.1306594 129.2582088 -234.58067309 125.78987957 -238.02978516 122.32061768 C-244.08545438 116.22665618 -250.13120397 110.12299315 -256.16984558 104.01216125 C-257.63571488 102.52991177 -259.10453114 101.05055919 -260.57861328 99.57647705 C-236.5023363 76.77897668 -208.83517856 58.07831402 -179.57861328 42.57647705 C-178.76118652 42.13980713 -177.94375977 41.70313721 -177.1015625 41.25323486 C-161.74092395 33.1081969 -145.87979508 26.59352732 -129.57861328 20.57647705 C-128.66289551 20.23632568 -127.74717773 19.89617432 -126.80371094 19.54571533 C-116.43913231 15.7480829 -105.87528746 12.72162734 -95.19055176 9.96450806 C-93.32960574 9.48400852 -91.47110061 8.99408334 -89.61279297 8.503479 C-85.28586958 7.42344057 -80.94441526 6.48382396 -76.57861328 5.57647705 C-75.1055925 5.25618027 -75.1055925 5.25618027 -73.60281372 4.92941284 C-49.14587911 -0.23828164 -24.89355299 -0.15781054 0 0 Z " fill="#3EE1A3" transform="translate(388.57861328125,-0.57647705078125)"/>
<path d="M0 0 C3.83294394 1.26651787 7.60889362 2.61017452 11.375 4.0625 C25.52236328 9.1776085 41.75754788 8.32813853 55.4375 2.25 C56.40558594 1.78078125 57.37367188 1.3115625 58.37109375 0.828125 C61 0 61 0 62.85479736 0.65292358 C65.59909315 2.37619954 67.66536487 4.42652655 69.95214844 6.72509766 C70.4306575 7.20331467 70.90916656 7.68153168 71.4021759 8.17424011 C72.97603195 9.74948483 74.54269293 11.33168535 76.109375 12.9140625 C77.20181286 14.01023213 78.29469434 15.10595981 79.38800049 16.20126343 C82.25951242 19.08039888 85.12496654 21.96549056 87.98919678 24.85186768 C90.91494126 27.79809815 93.84638014 30.73865069 96.77734375 33.6796875 C102.52381482 39.44758588 108.26389806 45.22178964 114 51 C109.7237549 56.10841702 105.24775843 60.89109048 100.52587891 65.58764648 C99.80323853 66.31043289 99.08059814 67.0332193 98.33605957 67.77790833 C95.96859215 70.14468416 93.59761225 72.50790719 91.2265625 74.87109375 C89.57582093 76.51996846 87.92530133 78.16906542 86.2749939 79.81837463 C81.94701522 84.14254924 77.61604101 88.4637113 73.28442383 92.78424072 C68.85836624 97.2000387 64.43516519 101.618696 60.01171875 106.03710938 C51.3439301 114.69419795 42.67297231 123.34810481 34 132 C28.82343599 127.66991931 23.98687411 123.12535501 19.22875977 118.34228516 C18.48646622 117.60013763 17.74417267 116.85799011 16.97938538 116.09335327 C14.54767865 113.66095472 12.11952461 111.22504267 9.69140625 108.7890625 C7.997691 107.09348048 6.30375357 105.39812037 4.60960388 103.70297241 C0.16706221 99.256626 -4.2724672 94.80728385 -8.71136475 90.3572998 C-13.24780964 85.81059675 -17.78711252 81.26674898 -22.32617188 76.72265625 C-31.22023882 67.81788805 -40.11122192 58.91004742 -49 50 C-45.58418599 45.94617265 -42.12834755 42.00370747 -38.37158203 38.25805664 C-37.51114288 37.39769302 -36.65070374 36.53732941 -35.76419067 35.65089417 C-34.85458588 34.74645065 -33.94498108 33.84200714 -33.0078125 32.91015625 C-32.05209752 31.95631046 -31.09660612 31.00224059 -30.1413269 30.04795837 C-27.64805084 27.55846806 -25.15178475 25.07199776 -22.65484619 22.58618164 C-20.09878491 20.04042006 -17.54561495 17.49176223 -14.9921875 14.94335938 C-9.99758981 9.95942931 -4.99982201 4.97868952 0 0 Z " fill="#3BD6A4" transform="translate(358,165)"/>
<path d="M0 0 C5.17656401 4.33008069 10.01312589 8.87464499 14.77124023 13.65771484 C15.51353378 14.39986237 16.25582733 15.14200989 17.02061462 15.90664673 C19.45232135 18.33904528 21.88047539 20.77495733 24.30859375 23.2109375 C26.002309 24.90651952 27.69624643 26.60187963 29.39039612 28.29702759 C33.83293779 32.743374 38.2724672 37.19271615 42.71136475 41.6427002 C47.24780964 46.18940325 51.78711252 50.73325102 56.32617188 55.27734375 C65.22023882 64.18211195 74.11122192 73.08995258 83 82 C78.7237549 87.10841702 74.24775843 91.89109048 69.52587891 96.58764648 C68.80323853 97.31043289 68.08059814 98.0332193 67.33605957 98.77790833 C64.96859215 101.14468416 62.59761225 103.50790719 60.2265625 105.87109375 C58.57582093 107.51996846 56.92530133 109.16906542 55.2749939 110.81837463 C50.94701522 115.14254924 46.61604101 119.4637113 42.28442383 123.78424072 C37.85836624 128.2000387 33.43516519 132.618696 29.01171875 137.03710938 C20.3439301 145.69419795 11.67297231 154.34810481 3 163 C-1.12262219 159.52930214 -5.11741567 156.0068976 -8.92553711 152.18798828 C-10.27614479 150.8372673 -10.27614479 150.8372673 -11.65403748 149.45925903 C-12.61186102 148.49633134 -13.56962851 147.5333479 -14.52734375 146.5703125 C-15.52603017 145.56975714 -16.52494047 144.56942519 -17.52406311 143.56930542 C-20.13191964 140.9576612 -22.73675695 138.34302633 -25.34094238 135.72772217 C-28.00735236 133.05101677 -30.67665464 130.37719898 -33.34570312 127.703125 C-38.56661101 122.47154602 -43.78432751 117.23679904 -49 112 C-47.49120169 107.41886139 -45.78683733 102.99994903 -43.90234375 98.5625 C-39.50255932 86.06787407 -40.38560394 68.84817389 -46 57 C-46.61875 55.845 -47.2375 54.69 -47.875 53.5 C-49 51 -49 51 -48.35415649 49.14178467 C-46.66807408 46.47501352 -44.6969195 44.45789854 -42.45849609 42.23144531 C-41.77043129 41.54294243 -41.77043129 41.54294243 -41.06846619 40.8405304 C-39.5581509 39.33160325 -38.04088612 37.82987546 -36.5234375 36.328125 C-35.4721083 35.28052776 -34.42122115 34.23248672 -33.37075806 33.184021 C-30.60998984 30.4308748 -27.84326751 27.68378873 -25.07525635 24.93792725 C-22.24967072 22.13283084 -19.42976555 19.32203679 -16.609375 16.51171875 C-11.07845626 11.00222468 -5.54123411 5.49912123 0 0 Z " fill="#36C8A5" transform="translate(216,307)"/>
<path d="M0 0 C5.04027212 4.22230313 9.76911598 8.62987816 14.40405273 13.29052734 C15.107332 13.99366058 15.81061127 14.69679382 16.53520203 15.42123413 C18.83704698 17.72377042 21.13533902 20.02981813 23.43359375 22.3359375 C25.03762792 23.94183861 26.6418844 25.5475177 28.24635315 27.15298462 C32.4521607 31.36259554 36.65495543 35.57520181 40.8571167 39.78845215 C45.15226772 44.09386431 49.45027946 48.3964186 53.74804688 52.69921875 C62.16815701 61.13002772 70.58508507 69.56400584 79 78 C75.58418599 82.05382735 72.12834755 85.99629253 68.37158203 89.74194336 C67.08092331 91.03248878 67.08092331 91.03248878 65.76419067 92.34910583 C64.85458588 93.25354935 63.94498108 94.15799286 63.0078125 95.08984375 C62.05209752 96.04368954 61.09660612 96.99775941 60.1413269 97.95204163 C57.64805084 100.44153194 55.15178475 102.92800224 52.65484619 105.41381836 C50.09878491 107.95957994 47.54561495 110.50823777 44.9921875 113.05664062 C39.99758981 118.04057069 34.99982201 123.02131048 30 128 C28.5688058 127.52470361 27.13776449 127.04894682 25.70678711 126.57299805 C24.90985947 126.30811081 24.11293182 126.04322357 23.29185486 125.77030945 C21.41933403 125.14094128 19.55420446 124.48961881 17.69140625 123.83203125 C3.72128339 119.27996875 -10.32215331 119.28816179 -24 125 C-25.53914063 125.84111328 -25.53914063 125.84111328 -27.109375 126.69921875 C-30 128 -30 128 -31.8883667 127.85231018 C-34.80948597 126.67327039 -36.46005525 124.89879045 -38.67675781 122.66381836 C-39.59741028 121.7429393 -40.51806274 120.82206024 -41.46661377 119.87327576 C-42.46227919 118.86229096 -43.45777907 117.8511431 -44.453125 116.83984375 C-45.47808326 115.80928859 -46.50370714 114.77939506 -47.52996826 113.75013733 C-50.22617017 111.04249408 -52.91324072 108.32596228 -55.59851074 105.60748291 C-58.34146729 102.83381027 -61.09296124 100.06863571 -63.84375 97.30273438 C-69.2375602 91.87677256 -74.62175234 86.44139257 -80 81 C-75.7237549 75.89158298 -71.24775843 71.10890952 -66.52587891 66.41235352 C-65.80323853 65.68956711 -65.08059814 64.9667807 -64.33605957 64.22209167 C-61.96859215 61.85531584 -59.59761225 59.49209281 -57.2265625 57.12890625 C-55.57582093 55.48003154 -53.92530133 53.83093458 -52.2749939 52.18162537 C-47.94701522 47.85745076 -43.61604101 43.5362887 -39.28442383 39.21575928 C-34.85836624 34.7999613 -30.43516519 30.381304 -26.01171875 25.96289062 C-17.3439301 17.30580205 -8.67297231 8.65189519 0 0 Z " fill="#31BAA6" transform="translate(391,482)"/>
<path d="M0 0 C3.98502372 3.36079177 7.87524598 6.75024675 11.55834961 10.44482422 C12.78883278 11.67542068 12.78883278 11.67542068 14.04417419 12.93087769 C14.90487015 13.79673492 15.7655661 14.66259216 16.65234375 15.5546875 C17.55247696 16.45623566 18.45261017 17.35778381 19.38002014 18.28665161 C21.75072823 20.66198217 24.11924515 23.03945405 26.48669434 25.41802979 C28.91180728 27.85344717 31.33982085 30.28596912 33.76757812 32.71875 C38.51437128 37.47652769 43.25829281 42.2371538 48 47 C47.6913501 47.92216309 47.3827002 48.84432617 47.06469727 49.79443359 C45.98023849 53.0594975 44.95008842 56.33697524 43.9375 59.625 C43.59589844 60.73101562 43.25429688 61.83703125 42.90234375 62.9765625 C42.60457031 63.97429687 42.30679688 64.97203125 42 66 C41.80019531 66.62648438 41.60039063 67.25296875 41.39453125 67.8984375 C38.96692698 80.82963646 41.22253989 94.57017917 47.42578125 106.0625 C48 108 48 108 47.31973267 109.82305908 C45.67284074 112.53965958 43.71222835 114.52687448 41.45849609 116.76855469 C40.99978622 117.22755661 40.54107635 117.68655853 40.06846619 118.1594696 C38.5581509 119.66839675 37.04088612 121.17012454 35.5234375 122.671875 C34.4721083 123.71947224 33.42122115 124.76751328 32.37075806 125.815979 C29.60998984 128.5691252 26.84326751 131.31621127 24.07525635 134.06207275 C21.24967072 136.86716916 18.42976555 139.67796321 15.609375 142.48828125 C10.07845626 147.99777532 4.54123411 153.50087877 -1 159 C-6.04027212 154.77769687 -10.76911598 150.37012184 -15.40405273 145.70947266 C-16.107332 145.00633942 -16.81061127 144.30320618 -17.53520203 143.57876587 C-19.83704698 141.27622958 -22.13533902 138.97018187 -24.43359375 136.6640625 C-26.03762792 135.05816139 -27.6418844 133.4524823 -29.24635315 131.84701538 C-33.4521607 127.63740446 -37.65495543 123.42479819 -41.8571167 119.21154785 C-46.15226772 114.90613569 -50.45027946 110.6035814 -54.74804688 106.30078125 C-63.16815701 97.86997228 -71.58508507 89.43599416 -80 81 C-75.7237549 75.89158298 -71.24775843 71.10890952 -66.52587891 66.41235352 C-65.80323853 65.68956711 -65.08059814 64.9667807 -64.33605957 64.22209167 C-61.96859215 61.85531584 -59.59761225 59.49209281 -57.2265625 57.12890625 C-55.57582093 55.48003154 -53.92530133 53.83093458 -52.2749939 52.18162537 C-47.94701522 47.85745076 -43.61604101 43.5362887 -39.28442383 39.21575928 C-34.85836624 34.7999613 -30.43516519 30.381304 -26.01171875 25.96289062 C-17.3439301 17.30580205 -8.67297231 8.65189519 0 0 Z " fill="#36C8A5" transform="translate(564,309)"/>
<path d="M0 0 C0.99 0.33 1.98 0.66 3 1 C2.29689697 1.59590942 2.29689697 1.59590942 1.57958984 2.20385742 C-3.99547794 6.99721413 -9.20554265 12.08768602 -14.375 17.3125 C-15.18066406 18.12267578 -15.98632812 18.93285156 -16.81640625 19.76757812 C-18.29462091 21.25445904 -19.77179975 22.74237106 -21.24755859 24.23168945 C-22.49535762 25.49078786 -23.74653855 26.74653855 -25 28 C-25 23.88123187 -22.82314524 22.26014057 -20.125 19.4375 C-19.6312085 18.91099854 -19.13741699 18.38449707 -18.62866211 17.84204102 C-4.23938672 2.58541654 -4.23938672 2.58541654 0 0 Z " fill="#D3F8EB" transform="translate(127,100)"/>
</svg>
