<?xml version="1.0" encoding="UTF-8"?>
<svg version="1.1" xmlns="http://www.w3.org/2000/svg" width="800" height="800">
<path d="M0 0 C1.25723248 -0.00611329 1.25723248 -0.00611329 2.53986359 -0.01235008 C6.99532311 -0.03314993 11.4507526 -0.04746556 15.90625 -0.05688477 C19.52686874 -0.06565354 23.14709221 -0.08631667 26.76757812 -0.1184082 C84.01533577 -0.61460297 138.45152364 11.38068243 190.640625 35.23828125 C191.86289795 35.78669678 191.86289795 35.78669678 193.10986328 36.34619141 C227.07689402 51.59683732 259.75144079 72.65336202 287.1640625 97.97265625 C288.5287396 99.22109903 289.90133938 100.46165243 291.3059082 101.66503906 C296.97660556 106.5241863 302.29869594 111.71018835 307.57641602 116.98876953 C309.06704115 118.47721362 310.56549517 119.95745402 312.06445312 121.4375 C318.37515387 127.71183814 324.08631863 134.27477849 329.640625 141.23828125 C330.57548409 142.34004191 331.5168261 143.43638693 332.46875 144.5234375 C345.07813776 158.98355798 355.737107 174.83374104 365.640625 191.23828125 C366.12885742 192.04571777 366.61708984 192.8531543 367.12011719 193.68505859 C391.90029254 235.02074332 408.57698085 280.64149338 417.328125 327.98828125 C417.51850342 328.99608643 417.70888184 330.0038916 417.9050293 331.04223633 C421.82837366 353.3315547 423.19934604 375.69930056 423.078125 398.30078125 C423.07306442 400.15257492 423.07306442 400.15257492 423.06790161 402.04177856 C422.98794602 422.35066267 422.11176808 442.21486675 418.640625 462.23828125 C418.51947327 462.94092102 418.39832153 463.64356079 418.27349854 464.36749268 C406.08630006 534.19996399 376.68837009 599.94746339 331.16113281 654.40917969 C329.779927 656.0707073 328.42245684 657.74841932 327.0703125 659.43359375 C320.10484287 667.97527834 312.34494976 675.74642373 304.578125 683.55078125 C304.02331451 684.11085876 303.46850403 684.67093628 302.8968811 685.24798584 C295.80132629 692.39553186 288.54121842 698.97900539 280.640625 705.23828125 C279.61287774 706.10143473 278.58947052 706.96983952 277.57421875 707.84765625 C258.43414614 724.26199082 236.97641695 738.22082475 214.76708984 750.09277344 C212.73951334 751.18501097 210.72996432 752.30464117 208.72265625 753.43359375 C152.56793174 784.64856097 86.95735027 798.7461211 23.140625 798.55078125 C21.90461548 798.54895844 20.66860596 798.54713562 19.3951416 798.54525757 C1.2847283 798.50028768 -16.44298699 798.07453089 -34.359375 795.23828125 C-36.0304834 794.98884766 -36.0304834 794.98884766 -37.73535156 794.734375 C-75.10757736 789.06396142 -111.02765454 778.01196496 -145.359375 762.23828125 C-146.97123806 761.51406445 -148.58321354 760.79009778 -150.1953125 760.06640625 C-183.26376636 745.01745442 -215.14031578 724.20424867 -241.8828125 699.50390625 C-243.2474896 698.25546347 -244.62008938 697.01491007 -246.0246582 695.81152344 C-251.69535556 690.9523762 -257.01744594 685.76637415 -262.29516602 680.48779297 C-263.78579115 678.99934888 -265.28424517 677.51910848 -266.78320312 676.0390625 C-273.09390387 669.76472436 -278.80506863 663.20178401 -284.359375 656.23828125 C-285.29423409 655.13652059 -286.2355761 654.04017557 -287.1875 652.953125 C-299.79688776 638.49300452 -310.455857 622.64282146 -320.359375 606.23828125 C-320.84760742 605.43084473 -321.33583984 604.6234082 -321.83886719 603.79150391 C-346.61904254 562.45581918 -363.29573085 516.83506912 -372.046875 469.48828125 C-372.23725342 468.48047607 -372.42763184 467.4726709 -372.6237793 466.43432617 C-376.54712366 444.1450078 -377.91809604 421.77726194 -377.796875 399.17578125 C-377.79350128 397.94125214 -377.79012756 396.70672302 -377.78665161 395.43478394 C-377.70669602 375.12589983 -376.83051808 355.26169575 -373.359375 335.23828125 C-373.1776474 334.18432159 -373.1776474 334.18432159 -372.99224854 333.10906982 C-360.80505006 263.27659851 -331.40712009 197.52909911 -285.87988281 143.06738281 C-284.498677 141.4058552 -283.14120684 139.72814318 -281.7890625 138.04296875 C-274.82359287 129.50128416 -267.06369976 121.73013877 -259.296875 113.92578125 C-258.74206451 113.36570374 -258.18725403 112.80562622 -257.6156311 112.22857666 C-250.52007629 105.08103064 -243.25996842 98.49755711 -235.359375 92.23828125 C-234.33162774 91.37512777 -233.30822052 90.50672298 -232.29296875 89.62890625 C-213.15289614 73.21457168 -191.69516695 59.25573775 -169.48583984 47.38378906 C-167.45826334 46.29155153 -165.44871432 45.17192133 -163.44140625 44.04296875 C-121.4167735 20.68255616 -73.75027411 7.65622331 -26.359375 1.23828125 C-24.46348633 0.96890747 -24.46348633 0.96890747 -22.52929688 0.6940918 C-15.0564013 -0.11037141 -7.50784702 0.03117051 0 0 Z " fill="#212630" transform="translate(377.359375,-0.23828125)"/>
<path d="M0 0 C1.46530403 1.3877642 2.93010759 2.77618098 4.37939453 4.18066406 C5.53333933 5.29810262 6.69390222 6.4087241 7.85888672 7.51464844 C48.47216319 46.13580216 70.55029257 99.06315552 73 154.75 C74.3287304 212.23284902 53.02542946 267.05083905 13.453125 308.5546875 C-6.04328955 328.66728032 -27.61614018 343.9344097 -53 355.75 C-54.13566406 356.28238281 -55.27132813 356.81476563 -56.44140625 357.36328125 C-107.97483146 380.47270831 -166.54888432 379.26902786 -218.93212891 359.93066406 C-243.58359381 350.44359703 -266.41645799 335.69604437 -285.37939453 317.31933594 C-286.53333933 316.20189738 -287.69390222 315.0912759 -288.85888672 313.98535156 C-329.47216319 275.36419784 -351.55029257 222.43684448 -354 166.75 C-355.3287304 109.26715098 -334.02542946 54.44916095 -294.453125 12.9453125 C-274.95671045 -7.16728032 -253.38385982 -22.4344097 -228 -34.25 C-226.86433594 -34.78238281 -225.72867188 -35.31476563 -224.55859375 -35.86328125 C-150.81875511 -68.93085663 -59.84136272 -53.8733562 0 0 Z " fill="#FEFEFE" transform="translate(540,238.25)"/>
<path d="M0 0 C2.10887035 1.25865843 4.21826364 2.51644099 6.328125 3.7734375 C7.94557617 4.74361816 7.94557617 4.74361816 9.59570312 5.73339844 C14.94694165 8.92215016 20.3490382 12.02147748 25.75 15.125 C27.91282349 16.37228647 30.07558346 17.61968308 32.23828125 18.8671875 C36.22063393 21.16162026 40.20570836 23.45118241 44.1942749 25.73478699 C45.96684277 26.75000835 47.73866231 27.76652339 49.51025391 28.78344727 C51.72588136 30.0547736 53.94291074 31.32366121 56.16162109 32.58959961 C80.6552574 46.65712833 80.6552574 46.65712833 85.875 61.6875 C86.51456726 65.42737738 86.57122715 69.05527151 86.5378418 72.84350586 C86.54820969 73.8987294 86.55857758 74.95395294 86.56925964 76.04115295 C86.5961462 79.49529013 86.58670622 82.94814112 86.57421875 86.40234375 C86.5801351 88.82410532 86.58738493 91.24586397 86.59590149 93.6676178 C86.60774991 98.73030903 86.60112657 103.79255974 86.58178711 108.85522461 C86.55890872 115.31903146 86.58568757 121.78152295 86.62684917 128.24520016 C86.65251536 133.24264843 86.64982305 138.23978568 86.63895607 143.23727608 C86.63747673 145.61933143 86.6450736 148.00141149 86.66220665 150.38340569 C86.75314419 165.47426415 86.5993239 176.34090706 76.15625 188.0546875 C71.69530157 192.1502268 66.69641474 194.97962518 61.375 197.8125 C59.31546943 198.94230436 57.25690474 200.07387089 55.19921875 201.20703125 C54.14911621 201.78146973 53.09901367 202.3559082 52.01708984 202.94775391 C47.02342884 205.71269783 42.10712529 208.60600607 37.1875 211.5 C28.17461288 216.78009636 19.13043358 222.00273723 10.0625 227.1875 C9.48021637 227.52093414 8.89793274 227.85436829 8.29800415 228.19790649 C-23.69840205 246.51407701 -23.69840205 246.51407701 -36.69165039 242.99169922 C-43.66896741 240.47085363 -49.85035048 237.21064313 -56.1875 233.375 C-58.30553045 232.11641452 -60.4240366 230.85862931 -62.54296875 229.6015625 C-63.62755371 228.95477539 -64.71213867 228.30798828 -65.82958984 227.64160156 C-71.191525 224.46209875 -76.59604309 221.35735695 -82 218.25 C-84.16278272 217.00264284 -86.32554298 215.75524672 -88.48828125 214.5078125 C-92.47063393 212.21337974 -96.45570836 209.92381759 -100.4442749 207.64021301 C-102.21684277 206.62499165 -103.98866231 205.60847661 -105.76025391 204.59155273 C-107.97588136 203.3202264 -110.19291074 202.05133879 -112.41162109 200.78540039 C-135.54903712 187.49679513 -135.54903712 187.49679513 -141.17443848 174.20852661 C-142.4478842 169.49148707 -142.43615186 165.05656734 -142.44726562 160.19091797 C-142.45719543 159.14617813 -142.46712524 158.10143829 -142.47735596 157.02503967 C-142.5065092 153.57656187 -142.52018935 150.12826818 -142.53125 146.6796875 C-142.54276208 144.27320352 -142.55427743 141.86671955 -142.5657959 139.4602356 C-142.5867915 134.41488799 -142.59849218 129.36960387 -142.60546875 124.32421875 C-142.61642114 117.88167736 -142.66444846 111.43998497 -142.72141266 104.99770927 C-142.75879724 100.02519336 -142.76908365 95.05287906 -142.7721405 90.08023453 C-142.778167 87.70651748 -142.79413393 85.33280285 -142.82051086 82.9592247 C-143.07979062 57.8296939 -143.07979062 57.8296939 -133.5625 46.6875 C-132.758125 46.0275 -131.95375 45.3675 -131.125 44.6875 C-130.35824951 44.05110596 -129.59149902 43.41471191 -128.80151367 42.7590332 C-126.23448977 40.77224146 -123.68026207 39.1498185 -120.86328125 37.54296875 C-119.84041016 36.95644531 -118.81753906 36.36992187 -117.76367188 35.765625 C-116.66603516 35.14171875 -115.56839844 34.5178125 -114.4375 33.875 C-113.27513283 33.21008588 -112.11302819 32.54471263 -110.95117188 31.87890625 C-108.5395854 30.4974087 -106.12688656 29.11788435 -103.71337891 27.73974609 C-98.17328919 24.57411373 -92.65019931 21.37902239 -87.125 18.1875 C-84.97918989 16.95048054 -82.83335643 15.7135016 -80.6875 14.4765625 C-76.73499399 12.19672846 -72.78570654 9.91151902 -68.84057617 7.61895752 C-67.07524789 6.59334372 -65.30921529 5.56895336 -63.54296875 4.54492188 C-61.3358368 3.26478534 -59.13001077 1.98239334 -56.92578125 0.69726562 C-35.46804653 -11.73503266 -21.97579893 -13.41923252 0 0 Z " fill="#212630" transform="translate(428.125,282.3125)"/>
</svg>
