<?xml version="1.0" standalone="no"?>
<!DOCTYPE svg PUBLIC "-//W3C//DTD SVG 20010904//EN"
 "http://www.w3.org/TR/2001/REC-SVG-20010904/DTD/svg10.dtd">
<svg version="1.0" xmlns="http://www.w3.org/2000/svg"
 width="475.000000pt" height="546.000000pt" viewBox="0 0 475.000000 546.000000"
 preserveAspectRatio="xMidYMid meet">

<g transform="translate(0.000000,546.000000) scale(0.100000,-0.100000)"
fill="#000000" stroke="none">
<path d="M1366 4448 c-145 -314 -189 -590 -151 -953 l18 -175 -34 -67 c-19
-38 -88 -171 -153 -297 -99 -190 -119 -236 -118 -271 0 -60 267 -593 315 -629
17 -13 88 -57 157 -96 324 -188 445 -293 524 -459 22 -47 38 -99 46 -154 l11
-83 176 -164 c96 -91 183 -171 193 -178 16 -12 38 6 208 164 l190 178 12 83
c8 54 23 106 45 150 81 170 201 275 525 463 69 39 140 83 157 96 48 36 316
571 316 630 0 33 -25 89 -129 290 -70 137 -140 271 -153 298 l-25 49 17 156
c38 341 14 549 -98 846 -48 127 -82 195 -98 194 -13 0 -16 -4 -291 -329 -276
-326 -262 -305 -275 -400 -7 -45 -10 -84 -8 -86 2 -3 114 108 247 246 134 137
249 250 257 250 48 0 104 -397 84 -595 -5 -55 -15 -144 -22 -198 l-13 -97 146
-289 c81 -158 149 -304 153 -323 7 -37 -15 -94 -139 -350 -76 -158 -52 -137
-388 -352 -189 -121 -220 -137 -232 -117 -4 5 0 85 9 178 l14 168 43 35 c77
62 116 111 157 194 46 94 107 254 99 261 -6 6 -277 -137 -334 -175 -76 -53
-149 -153 -167 -230 -3 -14 -18 -187 -32 -385 -31 -439 -48 -589 -66 -611 -22
-27 -183 -154 -194 -154 -11 0 -172 127 -194 154 -18 21 -34 173 -66 626 -26
359 -27 366 -56 430 -32 69 -79 124 -144 170 -58 40 -326 182 -333 176 -7 -8
52 -164 99 -261 40 -82 81 -134 157 -195 l44 -35 13 -155 c19 -203 19 -200 -3
-200 -42 0 -519 315 -548 362 -26 42 -172 351 -190 402 -8 21 -11 50 -7 65 3
14 71 155 149 313 154 307 154 308 134 419 -35 199 -32 413 10 619 22 108 37
150 54 150 6 0 123 -113 259 -252 l248 -253 -6 60 c-12 115 -15 120 -222 366
-259 309 -334 393 -350 397 -9 2 -26 -24 -47 -70z"/>
</g>
</svg>
